/usr/bin/start-video-rec.sh: line 69: kill: (1156) - No such process
ffmpeg version 2.8.15-0ubuntu0.16.04.1 Copyright (c) 2000-2018 the FFmpeg developers
  built with gcc 5.4.0 (Ubuntu 5.4.0-6ubuntu1~16.04.10) 20160609
  configuration: --prefix=/usr --extra-version=0ubuntu0.16.04.1 --build-suffix=-ffmpeg --toolchain=hardened --libdir=/usr/lib/x86_64-linux-gnu --incdir=/usr/include/x86_64-linux-gnu --cc=cc --cxx=g++ --enable-gpl --enable-shared --disable-stripping --disable-decoder=libopenjpeg --disable-decoder=libschroedinger --enable-avresample --enable-avisynth --enable-gnutls --enable-ladspa --enable-libass --enable-libbluray --enable-libbs2b --enable-libcaca --enable-libcdio --enable-libflite --enable-libfontconfig --enable-libfreetype --enable-libfribidi --enable-libgme --enable-libgsm --enable-libmodplug --enable-libmp3lame --enable-libopenjpeg --enable-libopus --enable-libpulse --enable-librtmp --enable-libschroedinger --enable-libshine --enable-libsnappy --enable-libsoxr --enable-libspeex --enable-libssh --enable-libtheora --enable-libtwolame --enable-libvorbis --enable-libvpx --enable-libwavpack --enable-libwebp --enable-libx265 --enable-libxvid --enable-libzvbi --enable-openal --enable-opengl --enable-x11grab --enable-libdc1394 --enable-libiec61883 --enable-libzmq --enable-frei0r --enable-libx264 --enable-libopencv
  libavutil      54. 31.100 / 54. 31.100
  libavcodec     56. 60.100 / 56. 60.100
  libavformat    56. 40.101 / 56. 40.101
  libavdevice    56.  4.100 / 56.  4.100
  libavfilter     5. 40.101 /  5. 40.101
  libavresample   2.  1.  0 /  2.  1.  0
  libswscale      3.  1.101 /  3.  1.101
  libswresample   1.  2.101 /  1.  2.101
  libpostproc    53.  3.100 / 53.  3.100
Input #0, matroska,webm, from '/home/seluser/videos/vid_chrome_or_firefox_40002.mkv':
  Metadata:
    ENCODER         : Lavf56.40.101
  Duration: 00:00:08.70, start: 0.000000, bitrate: 121 kb/s
    Stream #0:0: Video: h264 (Constrained Baseline), yuv420p, 1920x1080, SAR 1:1 DAR 16:9, 10 fps, 10 tbr, 1k tbn, 20 tbc (default)
    Metadata:
      ENCODER         : Lavc56.60.100 libx264
      DURATION        : 00:00:08.700000000
[libx264 @ 0x1509200] using SAR=1/1
[libx264 @ 0x1509200] using cpu capabilities: MMX2 SSE2Fast SSSE3 SSE4.2 AVX FMA3 AVX2 LZCNT BMI2
[libx264 @ 0x1509200] profile Constrained Baseline, level 4.0
[libx264 @ 0x1509200] 264 - core 148 r2643 5c65704 - H.264/MPEG-4 AVC codec - Copyleft 2003-2015 - http://www.videolan.org/x264.html - options: cabac=0 ref=1 deblock=0:0:0 analyse=0:0 me=dia subme=0 psy=1 psy_rd=1.00:0.00 mixed_ref=0 me_range=16 chroma_me=1 trellis=0 8x8dct=0 cqm=0 deadzone=21,11 fast_pskip=1 chroma_qp_offset=0 threads=3 lookahead_threads=1 sliced_threads=0 nr=0 decimate=1 interlaced=0 bluray_compat=0 constrained_intra=0 bframes=0 weightp=0 keyint=250 keyint_min=10 scenecut=0 intra_refresh=0 rc=crf mbtree=0 crf=23.0 qcomp=0.60 qpmin=0 qpmax=69 qpstep=4 ip_ratio=1.40 aq=0
Output #0, mp4, to '/home/seluser/videos/vid_chrome_or_firefox_40002.mp4':
  Metadata:
    encoder         : Lavf56.40.101
    Stream #0:0: Video: h264 (libx264) ([33][0][0][0] / 0x0021), yuv420p, 1920x1080 [SAR 1:1 DAR 16:9], q=-1--1, 10 fps, 10240 tbn, 10 tbc (default)
    Metadata:
      DURATION        : 00:00:08.700000000
      encoder         : Lavc56.60.100 libx264
Stream mapping:
  Stream #0:0 -> #0:0 (h264 (native) -> h264 (libx264))
Press [q] to stop, [?] for help
frame=   28 fps= 25 q=9.0 size=     122kB time=00:00:02.40 bitrate= 416.8kbits/s dup=25 drop=0    
frame=   34 fps= 21 q=9.0 size=     126kB time=00:00:03.00 bitrate= 345.4kbits/s dup=25 drop=0    
frame=   45 fps= 21 q=9.0 size=     128kB time=00:00:04.10 bitrate= 256.0kbits/s dup=26 drop=0    
frame=   58 fps= 21 q=9.0 size=     133kB time=00:00:05.40 bitrate= 201.9kbits/s dup=26 drop=0    
frame=   72 fps= 22 q=9.0 size=     133kB time=00:00:06.80 bitrate= 160.8kbits/s dup=28 drop=0    
frame=   84 fps= 22 q=9.0 size=     138kB time=00:00:08.00 bitrate= 141.6kbits/s dup=28 drop=0    
frame=   87 fps= 22 q=-1.0 Lsize=     140kB time=00:00:08.70 bitrate= 131.4kbits/s dup=28 drop=0    
video:138kB audio:0kB subtitle:0kB other streams:0kB global headers:0kB muxing overhead: 0.822668%
[libx264 @ 0x1509200] frame I:1     Avg QP:20.00  size: 68025
[libx264 @ 0x1509200] frame P:86    Avg QP: 9.59  size:   850
[libx264 @ 0x1509200] mb I  I16..4: 100.0%  0.0%  0.0%
[libx264 @ 0x1509200] mb P  I16..4:  1.3%  0.0%  0.0%  P16..4:  0.5%  0.0%  0.0%  0.0%  0.0%    skip:98.2%
[libx264 @ 0x1509200] coded y,uvDC,uvAC intra: 7.8% 4.0% 3.4% inter: 0.2% 0.2% 0.1%
[libx264 @ 0x1509200] i16 v,h,dc,p: 88% 11%  1%  0%
[libx264 @ 0x1509200] i8c dc,h,v,p: 90%  9%  1%  0%
[libx264 @ 0x1509200] kb/s:129.78
